<svg version="1.1" xmlns="http://www.w3.org/2000/svg" xmlns:xlink="http://www.w3.org/1999/xlink" x="0px" y="0px" viewBox="0 0 351.8 425.3">

	<style>
		.st0 {
			stroke:#FFFFFF;
			stroke-width:6;
			stroke-miterlimit:10;
		}
		path {
			fill: black;
			color-scheme:light dark;
		}
		@media (prefers-color-scheme:dark) {
			.st0 {
				stroke:none;
			}
			path {
				fill: white;
			}
		}
	</style>

	<path class="st0" d="M165.2,422.3c-44.1,0-82.7-29.9-93.8-72.7c-1.2-4.6-0.3-9.4,2.4-13.2c2.7-3.8,6.9-6.3,11.7-6.8
	c0.5,0,1-0.1,1.5-0.1c7.2,0,13.8,5.2,15.7,12.4c4.3,16.3,14.5,30.1,28.9,38.9c10.2,6.2,21.8,9.5,33.6,9.5c16.9,0,32.7-6.4,44.5-17.7
	l-10.9,2.8c-1.3,0.3-2.6,0.5-4,0.5c-4.4,0-8.7-1.8-11.7-5.1c-3.1-3.3-4.6-7.6-4.4-12.2c0.4-6.8,5.5-12.8,12.5-14.5l49.5-12.6l0.2,0
	c0.9-0.2,1.8-0.2,2.7-0.2c7.4,0,13.8,5,15.6,12.2l12.5,48.9c1.2,4.9,0.2,9.9-2.9,13.9c-3.1,4-7.8,6.2-12.9,6.2h0c-0.3,0-0.7,0-1,0
	c-6.8-0.4-12.8-5.5-14.5-12.5l-2.6-10.4c-12.8,14.5-29.6,24.9-48.5,29.7C181.6,421.3,173.4,422.3,165.2,422.3z M18.7,345.3
	c-3.6,0-6.9-1.2-9.8-3.7C5,338.4,3,333.2,3,326.3V97.1c0-3.3,0.5-6.1,1.4-8.6c1-2.6,2.5-4.8,4.4-6.4c1.9-1.6,4.1-2.7,6.6-3.2
	c1-0.2,2-0.3,2.9-0.3c1.4,0,2.8,0.2,4.2,0.6c4.2,1.1,8,3.8,11.2,7.9c3.3,4.1,4.9,9.4,4.9,15.6v86.3l87.9,5.4v-67.9
	c0-2.9,0.6-5.5,1.7-7.7c1.2-2.2,2.8-4,4.8-5.3c1.9-1.2,4.1-1.9,6.4-2.1c0.5,0,1.1-0.1,1.6-0.1c1.6,0,3.2,0.2,4.9,0.7
	c4,1.1,7.7,3.3,10.9,6.6c3.5,3.6,5.3,8.2,5.3,13.5v167.1c0,2.7-0.5,5.2-1.5,7.5c-0.9,2.2-2.3,4.2-3.9,5.9c-1.6,1.6-3.4,2.9-5.3,4
	c-1.9,1-4,1.8-6,2.2c-1.3,0.3-2.5,0.4-3.8,0.4c-3,0-5.9-0.8-8.5-2.3c-3-1.8-6.6-5.6-6.6-13.3v-76l-87.9-1v95.3c0,3.1-0.4,6-1.3,8.6
	c-0.9,2.6-2.1,5-3.7,7c-1.5,2-3.4,3.6-5.4,4.9c-2,1.3-4.1,2.1-6.3,2.6C20.9,345.2,19.8,345.3,18.7,345.3z M256.7,96.1
	c-7.2,0-13.8-5.2-15.7-12.4c-4.3-16.3-14.5-30.1-28.9-38.9c-10.2-6.2-21.8-9.5-33.6-9.5c-16.9,0-32.7,6.4-44.5,17.7l10.9-2.8
	c1.3-0.3,2.6-0.5,4-0.5c4.4,0,8.7,1.8,11.7,5.1c3.1,3.3,4.6,7.6,4.4,12.2c-0.4,6.8-5.5,12.8-12.5,14.5l-49.5,12.6l-0.2,0
	c-0.9,0.2-1.8,0.2-2.7,0.2c-7.4,0-13.8-5-15.6-12.2L71.8,33.3c-1.2-4.9-0.2-9.9,2.9-13.9c3.1-4,7.8-6.2,12.9-6.2c0.3,0,0.7,0,1,0
	c6.8,0.4,12.8,5.5,14.5,12.5l2.6,10.3c12.8-14.6,29.7-25.1,48.7-30c7.9-2,16-3,24-3c44.3,0,82.9,30,93.8,73
	c1.2,4.5,0.3,9.4-2.4,13.2c-2.7,3.8-6.9,6.3-11.7,6.8C257.7,96,257.2,96.1,256.7,96.1z"/>

	<path d="M155.9,11.8c-21.7,5.6-40.5,19-52.9,37.7l-5.7-22.3c-1.1-4.3-4.7-7.8-9.1-8c-7.3-0.4-12.2,6.1-10.6,12.6l12.5,48.9
	c1.3,5.1,6.3,8.4,11.5,7.5l49.3-12.6c4.3-1.1,7.8-4.7,8-9.1c0.4-7.3-6.1-12.2-12.6-10.6L118,63.2c20.3-33.3,63.9-43.9,97.2-23.5
	c15.6,9.5,27,24.8,31.6,42.5c1.2,4.8,5.9,8.4,10.8,7.9c6.3-0.6,10.4-6.7,8.9-12.6C254.1,28.8,204.6-0.6,155.9,11.8L155.9,11.8z
	 M242.1,337.4l-49.3,12.6c-4.3,1.1-7.8,4.7-8,9.1c-0.4,7.3,6.1,12.2,12.6,10.6l28.3-7.2c-20.3,33.3-63.9,43.9-97.2,23.5
	c-15.6-9.5-27-24.8-31.6-42.5c-1.2-4.8-5.9-8.4-10.8-7.9c-6.3,0.6-10.4,6.6-8.8,12.6c12.6,48.6,62.2,77.9,110.8,65.3
	c21.6-5.6,40.3-18.9,52.7-37.3l5.7,22.3c1.1,4.3,4.7,7.8,9.1,8c7.3,0.4,12.2-6.1,10.6-12.6l-12.5-48.9
	C252.4,339.7,247.3,336.5,242.1,337.4L242.1,337.4z M132.5,126.6c0-2,0.3-3.6,1-4.9c0.7-1.3,1.6-2.3,2.7-3c1.1-0.7,2.4-1.1,3.8-1.2
	c1.4-0.1,2.9,0,4.4,0.4c3,0.8,5.7,2.5,8.2,5c2.4,2.5,3.6,5.6,3.6,9.3v167.1c0,1.9-0.3,3.6-1,5.1c-0.7,1.5-1.6,2.9-2.7,4.1
	c-1.1,1.2-2.4,2.1-3.9,2.9c-1.4,0.8-2.9,1.3-4.4,1.6c-2.9,0.6-5.6,0.2-8-1.2c-2.4-1.5-3.7-4.2-3.7-8.1v-81.9l-99.9-1.2v101.4
	c0,2.4-0.3,4.6-1,6.6c-0.7,2-1.6,3.7-2.7,5.2c-1.1,1.5-2.4,2.6-3.9,3.5c-1.4,0.9-2.9,1.5-4.4,1.8c-2.9,0.6-5.6-0.1-8-2.1
	c-2.4-2-3.7-5.6-3.7-10.7V97.1c0-2.6,0.3-4.7,1-6.4c0.7-1.7,1.6-3.1,2.7-4c1.1-1,2.4-1.6,3.8-1.9s2.9-0.2,4.4,0.2
	c2.9,0.8,5.6,2.7,8,5.8c2.4,3.1,3.6,7.1,3.6,11.9v92l99.9,6.1C132.5,200.9,132.5,126.6,132.5,126.6z"/>

	<path class="st0" d="M333.1,344.6c-1.1,0-2.2-0.1-3.3-0.3c-2.2-0.5-4.3-1.3-6.3-2.6c-2-1.3-3.8-2.9-5.4-4.9c-1.6-2-2.8-4.3-3.7-7
	c-0.9-2.6-1.3-5.4-1.3-8.5v-95.3l-87.9,1v76c0,7.7-3.6,11.5-6.6,13.3c-2.7,1.6-5.5,2.4-8.6,2.4c-1.2,0-2.5-0.1-3.8-0.4
	c-2-0.4-4-1.1-5.9-2.2c-2-1.1-3.8-2.4-5.3-4c-1.7-1.7-3-3.7-3.9-5.9c-1-2.3-1.5-4.8-1.5-7.5V131.5c0-5.3,1.8-9.9,5.3-13.5
	c3.2-3.3,6.9-5.5,10.9-6.6c1.6-0.4,3.3-0.7,4.9-0.7c0.5,0,1.1,0,1.6,0.1c2.3,0.2,4.5,0.9,6.4,2.1c2,1.3,3.7,3.1,4.8,5.3
	c1.1,2.1,1.7,4.7,1.7,7.6v6h0v61.9l87.9-5.4v-86.3c0-6.2,1.7-11.5,4.9-15.6c3.3-4.1,7-6.8,11.2-7.9c1.4-0.4,2.8-0.6,4.2-0.6
	c1,0,2,0.1,2.9,0.3c2.4,0.5,4.6,1.5,6.6,3.2c1.9,1.6,3.4,3.8,4.4,6.4c0.9,2.4,1.4,5.2,1.4,8.6v229.1c0,6.9-1.9,12.1-5.8,15.3
	C340,343.4,336.7,344.6,333.1,344.6z"/>

	<path d="M219.3,125.9c0-2-0.3-3.6-1-4.9c-0.7-1.3-1.6-2.3-2.7-3s-2.4-1.1-3.8-1.2c-1.4-0.1-2.9,0-4.4,0.4c-3,0.8-5.7,2.5-8.2,5
	c-2.4,2.5-3.6,5.6-3.6,9.3v167.1c0,1.9,0.3,3.6,1,5.1c0.7,1.5,1.6,2.9,2.7,4.1s2.4,2.1,3.9,2.9c1.4,0.8,2.9,1.3,4.4,1.6
	c2.9,0.6,5.6,0.2,8-1.2c2.4-1.5,3.6-4.2,3.6-8.1V221l99.9-1.2v101.4c0,2.4,0.3,4.6,1,6.6c0.7,2,1.6,3.7,2.7,5.2
	c1.1,1.5,2.4,2.6,3.9,3.5c1.4,0.9,2.9,1.5,4.4,1.8c2.9,0.6,5.6-0.1,8-2.1c2.4-2,3.6-5.6,3.6-10.7V96.4c0-2.6-0.3-4.7-1-6.4
	c-0.7-1.7-1.6-3.1-2.7-4c-1.1-1-2.4-1.6-3.9-1.9s-2.9-0.2-4.4,0.2c-2.9,0.8-5.6,2.7-8,5.8c-2.4,3.1-3.6,7.1-3.6,11.9v92l-99.9,6.1
	L219.3,125.9L219.3,125.9z"/>
</svg>
