<svg version="1.1" xmlns="http://www.w3.org/2000/svg" xmlns:xlink="http://www.w3.org/1999/xlink" x="0px" y="0px" viewBox="0 0 333.8 407.3">
	<defs>
		<style>
			path {
				fill: black;
				color-scheme:light dark;
			}
			@media (prefers-color-scheme:dark) {
				path {
					fill: white;
				}
			}
		</style>
	</defs>

    <path d="M146.9,2.8c-21.7,5.6-40.5,19-52.9,37.7l-5.7-22.3c-1.1-4.3-4.7-7.8-9.1-8c-7.3-0.4-12.2,6.1-10.6,12.6l12.5,48.9
	c1.3,5.1,6.3,8.4,11.5,7.5l49.3-12.6c4.3-1.1,7.8-4.7,8-9.1c0.4-7.3-6.1-12.2-12.6-10.6L109,54.2c20.3-33.3,63.8-43.9,97.2-23.5
	c15.6,9.5,27,24.8,31.6,42.5c1.2,4.8,5.9,8.4,10.8,7.9c6.3-0.6,10.4-6.7,8.9-12.6C245.1,19.8,195.6-9.6,146.9,2.8z" />
	                   
    <path d="M233.1,328.4l-49.3,12.6c-4.3,1.1-7.8,4.7-8,9.1c-0.4,7.3,6.1,12.2,12.6,10.6l28.3-7.2c-20.3,33.3-63.9,43.9-97.2,23.5
	c-15.6-9.5-27-24.8-31.6-42.5c-1.2-4.8-5.9-8.4-10.8-7.9c-6.3,0.6-10.4,6.6-8.8,12.6c12.6,48.6,62.2,77.9,110.8,65.3
	c21.6-5.6,40.3-18.9,52.7-37.3l5.7,22.3c1.1,4.3,4.7,7.8,9.1,8c7.3,0.4,12.2-6.1,10.6-12.6l-12.5-48.9
	C243.4,330.7,238.4,327.5,233.1,328.4z" />
	            
    <path d="M123.5,117.6c0-2,0.3-3.6,1-4.9c0.7-1.3,1.6-2.3,2.7-3c1.1-0.7,2.4-1.1,3.8-1.2c1.4-0.1,2.9,0,4.4,0.4c3,0.8,5.7,2.5,8.2,5
	c2.4,2.5,3.6,5.6,3.6,9.3v167.1c0,1.9-0.3,3.6-1,5.1c-0.7,1.5-1.6,2.9-2.7,4.1s-2.4,2.1-3.9,2.9c-1.4,0.8-2.9,1.3-4.4,1.6
	c-2.9,0.6-5.6,0.2-8-1.2c-2.4-1.5-3.7-4.2-3.7-8.1v-81.9l-99.9-1.2v101.4c0,2.4-0.3,4.6-1,6.6c-0.7,2-1.6,3.7-2.7,5.2
	c-1.1,1.5-2.4,2.6-3.9,3.5c-1.4,0.9-2.9,1.5-4.4,1.8c-2.9,0.6-5.6-0.1-8-2.1c-2.4-2-3.7-5.6-3.7-10.7V88.1c0-2.6,0.3-4.7,1-6.4
	c0.7-1.7,1.6-3.1,2.7-4c1.1-1,2.4-1.6,3.8-1.9c1.4-0.3,2.9-0.2,4.4,0.2c2.9,0.8,5.6,2.7,8,5.8c2.4,3.1,3.6,7.1,3.6,11.9v92l99.9,6.1
	V117.6z" />
                 
    <path d="M210.3,116.9c0-2-0.3-3.6-1-4.9c-0.7-1.3-1.6-2.3-2.7-3s-2.4-1.1-3.8-1.2c-1.4-0.1-2.9,0-4.4,0.4c-3,0.8-5.7,2.5-8.2,5
	c-2.4,2.5-3.6,5.6-3.6,9.3v167.1c0,1.9,0.3,3.6,1,5.1c0.7,1.5,1.6,2.9,2.7,4.1s2.4,2.1,3.9,2.9c1.4,0.8,2.9,1.3,4.4,1.6
	c2.9,0.6,5.6,0.2,8-1.2c2.4-1.5,3.6-4.2,3.6-8.1V212l99.9-1.2v101.4c0,2.4,0.3,4.6,1,6.6c0.7,2,1.6,3.7,2.7,5.2
	c1.1,1.5,2.4,2.6,3.9,3.5c1.4,0.9,2.9,1.5,4.4,1.8c2.9,0.6,5.6-0.1,8-2.1c2.4-2,3.6-5.6,3.6-10.7V87.4c0-2.6-0.3-4.7-1-6.4
	c-0.7-1.7-1.6-3.1-2.7-4c-1.1-1-2.4-1.6-3.9-1.9c-1.4-0.3-2.9-0.2-4.4,0.2c-2.9,0.8-5.6,2.7-8,5.8c-2.4,3.1-3.6,7.1-3.6,11.9v92
	l-99.9,6.1L210.3,116.9L210.3,116.9z" />
</svg>